<?xml version="1.0" encoding="UTF-8" standalone="no"?>
<!-- Created with Inkscape (http://www.inkscape.org/) -->

<svg
   xmlns:dc="http://purl.org/dc/elements/1.1/"
   xmlns:cc="http://creativecommons.org/ns#"
   xmlns:rdf="http://www.w3.org/1999/02/22-rdf-syntax-ns#"
   xmlns:svg="http://www.w3.org/2000/svg"
   xmlns="http://www.w3.org/2000/svg"
   xmlns:sodipodi="http://sodipodi.sourceforge.net/DTD/sodipodi-0.dtd"
   xmlns:inkscape="http://www.inkscape.org/namespaces/inkscape"
   width="120"
   height="120"
   viewBox="0 0 119.99999 120.00001"
   id="svg2"
   version="1.1"
   inkscape:version="0.91 r13725"
   sodipodi:docname="favicon.svg"
   inkscape:export-filename="C:\Users\danie\RubymineProjects\spigoter\assets\img\favicon.png"
   inkscape:export-xdpi="36"
   inkscape:export-ydpi="36">
  <defs
     id="defs4" />
  <sodipodi:namedview
     id="base"
     pagecolor="#F44336"
     bordercolor="#666666"
     borderopacity="1"
     inkscape:pageopacity="1"
     inkscape:pageshadow="2"
     inkscape:zoom="4.0000002"
     inkscape:cx="19.196864"
     inkscape:cy="36.88691"
     inkscape:document-units="px"
     inkscape:current-layer="layer1"
     showgrid="false"
     fit-margin-top="0"
     fit-margin-left="0"
     fit-margin-right="0"
     fit-margin-bottom="0"
     units="px"
     inkscape:window-width="1920"
     inkscape:window-height="1017"
     inkscape:window-x="-8"
     inkscape:window-y="892"
     inkscape:window-maximized="1"
     inkscape:showpageshadow="false"
     borderlayer="true"
     showborder="true" />
  <metadata
     id="metadata7">
    <rdf:RDF>
      <cc:Work
         rdf:about="">
        <dc:format>image/svg+xml</dc:format>
        <dc:type
           rdf:resource="http://purl.org/dc/dcmitype/StillImage" />
        <dc:title />
      </cc:Work>
    </rdf:RDF>
  </metadata>
  <g
     inkscape:label="Capa 1"
     inkscape:groupmode="layer"
     id="layer1"
     transform="translate(-514.10323,75.146638)">
    <path
       style="fill:#ffffff;fill-opacity:1"
       inkscape:connector-curvature="0"
       d="m 613.66004,15.903036 c 0.88962,-1.114731 0.47456,-3.037682 -0.53625,-4.048494 -3.26679,-3.266795 -4.24862,-8.0834207 -2.49681,-12.26697715 1.79776,-4.28007435 6.14197,-7.02265215 10.80873,-6.82159965 1.4675,0.065681 2.73456,-1.0145133 2.90663,-2.4718354 0.45082,-3.7959458 0.46902,-7.6143998 0.0562,-11.3520638 -0.16066,-1.463182 -1.44438,-2.565578 -2.92884,-2.490338 -4.47835,0.228497 -9.17008,-2.714208 -10.88921,-6.894682 -1.7774,-4.359631 -0.60377,-9.406912 2.92513,-12.555295 1.11196,-0.98676 1.25658,-2.665796 0.33272,-3.833257 -2.35496,-2.971691 -5.03278,-5.667398 -8.00016,-8.042099 -1.14649,-0.918304 -2.80332,-0.794651 -3.80519,0.275676 -3.19032,3.421592 -8.20461,4.518439 -12.48838,2.724385 -4.10493,-1.723747 -7.02759,-6.382491 -6.81544,-10.835865 0.0675,-1.469349 -1.01019,-2.735795 -2.46505,-2.915878 -3.8129,-0.459769 -7.67546,-0.483205 -11.46954,-0.06506 -1.47645,0.160965 -2.56589,1.444679 -2.4962,2.92112 0.23435,4.729667 -2.53937,9.103791 -6.90239,10.88952 -4.16136,1.700621 -9.0927,0.545494 -12.57627,-2.93808 -1.09407,-1.166844 -2.65808,-1.211865 -3.81105,-0.308671 -2.99081,2.364217 -5.72383,5.090451 -8.12166,8.091438 -0.89394,1.119048 -0.43788,3.070059 0.58404,4.091973 3.18415,3.026271 4.24245,7.926771 2.45149,12.221031 -1.79345,4.28439 -6.13705,7.024501 -10.81089,6.822524 -1.46349,-0.06167 -2.73179,1.011738 -2.9017,2.469368 -0.45452,3.765726 -0.4721,7.587265 -0.0672,11.345281 0.15911,1.4752069 1.43975,2.5714363 2.92882,2.4989711 4.49223,-0.2257215 9.18182,2.7179088 10.88644,6.88882275 1.78974,4.36518245 0.6155,9.41123015 -2.91309,12.56177115 -1.11134,0.987378 -1.25689,2.671038 -0.33396,3.832023 1.20353,1.522387 2.49465,2.971384 3.86902,4.345756 1.30437,1.304375 2.68029,2.537825 4.13022,3.697269 1.14772,0.919537 2.80424,0.793725 3.80581,-0.277527 3.18508,-3.423751 8.20398,-4.516588 12.4816,-2.723767 4.13205,1.735465 7.02881,6.386192 6.82128,10.837407 -0.0623,1.471506 1.00959,2.729627 2.46536,2.915569 3.80489,0.460385 7.66282,0.481046 11.46986,0.06476 1.47552,-0.158807 2.5702,-1.440362 2.49743,-2.922353 -0.23528,-4.727509 2.53567,-9.107493 6.89561,-10.890137 4.10276,-1.680269 8.97428,-0.691658 12.12574,2.459808 l 0.42925,0.452677 c 0.94019,1.106097 2.66826,1.258428 3.83572,0.338274 2.99481,-2.365142 5.72475,-5.088293 8.12227,-8.091437 z M 553.7208,4.9873043 c -11.35176,-11.3517563 -11.35176,-29.7554583 -3e-4,-41.1069063 11.35144,-11.351448 29.75545,-11.351139 41.10689,3.08e-4 11.35146,11.351448 11.35176,29.7554587 3.2e-4,41.1069061 -3.853,3.8529919 -8.51914,6.3945179 -13.44585,7.6313609 l 3.1e-4,-18.0000563 c 2.18783,-0.8846926 4.19744,-2.2060268 5.91594,-3.9251488 3.36577,-3.3657789 5.21904,-7.8407389 5.21842,-12.6006249 0,-4.75927 -1.85357,-9.233921 -5.21873,-12.599083 -1.12306,-1.123057 -2.39012,-2.091625 -3.76603,-2.878566 -0.60285,-0.344441 -2.05379,-0.66211 -2.96239,-0.66211 l 0.0145,2.427138 c 0,0 -0.0343,8.920625 -0.0339,11.89355 0,0.311446 -0.37188,0.682715 -0.52761,0.794651 l -0.11162,0.08388 c -1.78419,1.484458 -4.03493,3.157326 -5.02724,3.672909 -0.0639,-3.09e-4 -0.12088,-0.0037 -0.18626,-0.0037 -0.0684,0 -0.1329,0.0016 -0.19981,0.0025 -1.00897,-0.518666 -3.29332,-2.218361 -5.10217,-3.729955 l 0.009,-0.0086 -0.0934,-0.05581 c -0.0148,-0.01172 -0.0413,-0.03453 -0.074,-0.06722 -0.17946,-0.179466 -0.39316,-0.493688 -0.39347,-0.973193 0,-3.094727 -0.0305,-11.602146 -0.0305,-11.602146 l 0.0113,-2.805078 c -1.04091,0.02108 -2.1846,0.5898 -2.98912,1.050186 -5.52401,3.173669 -8.95609,9.097316 -8.95639,15.46038 3e-4,4.760195 1.85418,9.235155 5.21996,12.6009339 1.71881,1.7188137 3.7281,3.0404563 5.91563,3.9248404 l 0,18.1952497 c -5.23771,-1.150203 -10.22023,-3.7534 -14.2934,-7.8265636 z"
       id="path4151"
       sodipodi:nodetypes="csccccccccccccccccccccccccccccsccccccccccccccsssccccscccccccsccccccccccscccc"
       inkscape:export-xdpi="39.240196"
       inkscape:export-ydpi="39.240196" />
    <g
       id="g4153"
       transform="matrix(0.33664818,0.33664818,-0.33664818,0.33664818,569.14944,-88.035028)" />
    <g
       id="g4155"
       transform="matrix(0.33664818,0.33664818,-0.33664818,0.33664818,569.14944,-88.035028)" />
    <g
       id="g4157"
       transform="matrix(0.33664818,0.33664818,-0.33664818,0.33664818,569.14944,-88.035028)" />
    <g
       id="g4159"
       transform="matrix(0.33664818,0.33664818,-0.33664818,0.33664818,569.14944,-88.035028)" />
    <g
       id="g4161"
       transform="matrix(0.33664818,0.33664818,-0.33664818,0.33664818,569.14944,-88.035028)" />
    <g
       id="g4163"
       transform="matrix(0.33664818,0.33664818,-0.33664818,0.33664818,569.14944,-88.035028)" />
    <g
       id="g4165"
       transform="matrix(0.33664818,0.33664818,-0.33664818,0.33664818,569.14944,-88.035028)" />
    <g
       id="g4167"
       transform="matrix(0.33664818,0.33664818,-0.33664818,0.33664818,569.14944,-88.035028)" />
    <g
       id="g4169"
       transform="matrix(0.33664818,0.33664818,-0.33664818,0.33664818,569.14944,-88.035028)" />
    <g
       id="g4171"
       transform="matrix(0.33664818,0.33664818,-0.33664818,0.33664818,569.14944,-88.035028)" />
    <g
       id="g4173"
       transform="matrix(0.33664818,0.33664818,-0.33664818,0.33664818,569.14944,-88.035028)" />
    <g
       id="g4175"
       transform="matrix(0.33664818,0.33664818,-0.33664818,0.33664818,569.14944,-88.035028)" />
    <g
       id="g4177"
       transform="matrix(0.33664818,0.33664818,-0.33664818,0.33664818,569.14944,-88.035028)" />
    <g
       id="g4179"
       transform="matrix(0.33664818,0.33664818,-0.33664818,0.33664818,569.14944,-88.035028)" />
    <g
       id="g4181"
       transform="matrix(0.33664818,0.33664818,-0.33664818,0.33664818,569.14944,-88.035028)" />
  </g>
</svg>
