<?xml version="1.0" encoding="UTF-8" standalone="no"?>
<!-- Created with Inkscape (http://www.inkscape.org/) -->

<svg
   xmlns:dc="http://purl.org/dc/elements/1.1/"
   xmlns:cc="http://creativecommons.org/ns#"
   xmlns:rdf="http://www.w3.org/1999/02/22-rdf-syntax-ns#"
   xmlns:svg="http://www.w3.org/2000/svg"
   xmlns="http://www.w3.org/2000/svg"
   xmlns:sodipodi="http://sodipodi.sourceforge.net/DTD/sodipodi-0.dtd"
   xmlns:inkscape="http://www.inkscape.org/namespaces/inkscape"
   width="713.7879"
   height="139.85313"
   viewBox="0 0 713.78787 139.85313"
   id="svg2"
   version="1.1"
   inkscape:version="0.91 r13725"
   sodipodi:docname="logo.svg">
  <defs
     id="defs4" />
  <sodipodi:namedview
     id="base"
     pagecolor="#5f5f5f"
     bordercolor="#666666"
     borderopacity="1.0"
     inkscape:pageopacity="1"
     inkscape:pageshadow="2"
     inkscape:zoom="1.4142136"
     inkscape:cx="265.47078"
     inkscape:cy="19.783319"
     inkscape:document-units="px"
     inkscape:current-layer="layer1"
     showgrid="false"
     fit-margin-top="0"
     fit-margin-left="0"
     fit-margin-right="0"
     fit-margin-bottom="0"
     units="px"
     inkscape:window-width="1920"
     inkscape:window-height="1017"
     inkscape:window-x="-8"
     inkscape:window-y="892"
     inkscape:window-maximized="1" />
  <metadata
     id="metadata7">
    <rdf:RDF>
      <cc:Work
         rdf:about="">
        <dc:format>image/svg+xml</dc:format>
        <dc:type
           rdf:resource="http://purl.org/dc/dcmitype/StillImage" />
        <dc:title />
      </cc:Work>
    </rdf:RDF>
  </metadata>
  <g
     inkscape:label="Capa 1"
     inkscape:groupmode="layer"
     id="layer1"
     transform="translate(-163.23757,75.964617)">
    <g
       style="font-style:normal;font-weight:normal;font-size:193.42407227px;line-height:125%;font-family:sans-serif;letter-spacing:0px;word-spacing:0px;fill:#ffffff;fill-opacity:1;stroke:none;stroke-width:1px;stroke-linecap:butt;stroke-linejoin:miter;stroke-opacity:1"
       id="text4255">
      <path
         d="m 183.16025,-49.651409 0,19.92268 80.46441,0 0,60.541734 -100.38709,0 0,-19.922679 80.46441,0 0,-19.9226794 -80.46441,0 0,-60.5417346 100.38709,0 0,19.922679 -80.46441,0 z"
         style="font-style:normal;font-variant:normal;font-weight:500;font-stretch:normal;font-family:'FORCED SQUARE';-inkscape-font-specification:'FORCED SQUARE Medium';fill:#ffffff;fill-opacity:1"
         id="path4153" />
      <path
         d="m 365.53195,30.813005 -60.54174,0 0,30.561004 -19.92267,0 0,-111.025418 80.46441,0 0,80.464414 z m -19.92268,-60.541734 -40.61906,0 0,40.619055 40.61906,0 0,-40.619055 z"
         style="font-style:normal;font-variant:normal;font-weight:500;font-stretch:normal;font-family:'FORCED SQUARE';-inkscape-font-specification:'FORCED SQUARE Medium';fill:#ffffff;fill-opacity:1"
         id="path4155" />
      <path
         d="m 406.23562,-75.570234 0,15.66735 -19.92268,0 0,-15.66735 19.92268,0 z m -19.92268,27.07937 19.92268,0 0,79.303869 -19.92268,0 0,-79.303869 z"
         style="font-style:normal;font-variant:normal;font-weight:500;font-stretch:normal;font-family:'FORCED SQUARE';-inkscape-font-specification:'FORCED SQUARE Medium';fill:#ffffff;fill-opacity:1"
         id="path4157" />
      <path
         d="m 507.57777,63.888522 -80.46441,0 0,-19.92268 60.54173,0 0,-13.152837 -60.54173,0 0,-80.464414 80.46441,0 0,113.539931 z m -19.92268,-52.998196 0,-40.619055 -40.61905,0 0,40.619055 40.61905,0 z"
         style="font-style:normal;font-variant:normal;font-weight:500;font-stretch:normal;font-family:'FORCED SQUARE';-inkscape-font-specification:'FORCED SQUARE Medium';fill:#ffffff;fill-opacity:1"
         id="path4159" />
    </g>
    <path
       sodipodi:nodetypes="cccccccccccccccccccccccccccccccccc"
       inkscape:connector-curvature="0"
       id="path4158"
       d="m 630.75608,-75.964617 0,106.92768 60.62859,0 0,-19.952594 -40.68075,0 0,-40.676004 40.68075,0 0,-19.952594 -40.68075,0 0,-26.346488 z m 81.34259,26.152585 0,80.581193 81.35677,0 0,-18.983082 -60.63334,0 0,-13.1708948 60.63334,0 0,-48.4272162 z m 101.39448,0.193951 0,80.581193 20.72343,0 0,-60.628599 22.08545,0 0,19.9478486 20.72346,0 0,-39.9004426 z m -80.67105,17.819714 39.90516,0 0,13.946458 -39.90516,0 z"
       style="font-style:normal;font-variant:normal;font-weight:500;font-stretch:normal;font-size:80px;line-height:125%;font-family:'FORCED SQUARE';-inkscape-font-specification:'FORCED SQUARE Medium';letter-spacing:0px;word-spacing:0px;fill:#ffffff;fill-opacity:1;stroke:none;stroke-width:1px;stroke-linecap:butt;stroke-linejoin:miter;stroke-opacity:1" />
    <path
       style="fill:#ffffff"
       inkscape:connector-curvature="0"
       d="m 612.14783,24.164761 c 0.97123,-1.216983 0.5181,-3.316322 -0.58543,-4.419854 -3.56645,-3.566451 -4.63834,-8.824896 -2.72584,-13.3922015 1.96266,-4.6726768 6.70536,-7.6668257 11.80019,-7.4473311 1.60211,0.071706 2.9854,-1.1075725 3.17325,-2.6985718 0.49217,-4.1441391 0.51204,-8.3128536 0.0613,-12.3933656 -0.1754,-1.597396 -1.57687,-2.800913 -3.19749,-2.718771 -4.88914,0.249456 -10.01124,-2.963177 -11.88806,-7.527117 -1.94044,-4.759532 -0.65915,-10.269789 3.19345,-13.706967 1.21395,-1.077274 1.37184,-2.910324 0.36324,-4.184874 -2.57098,-3.244278 -5.49443,-6.187257 -8.734,-8.779784 -1.25166,-1.002538 -3.06047,-0.867543 -4.15424,0.300963 -3.48296,3.735448 -8.9572,4.932906 -13.63391,2.974287 -4.48146,-1.881863 -7.67221,-6.967944 -7.4406,-11.829817 0.0737,-1.604129 -1.10286,-2.986743 -2.69117,-3.183345 -4.16265,-0.501943 -8.37951,-0.527528 -12.52162,-0.07103 -1.61188,0.17573 -2.80125,1.577197 -2.72517,3.189068 0.25585,5.16351 -2.7723,9.938864 -7.53553,11.888394 -4.54307,1.856615 -9.92675,0.595531 -13.72986,-3.207584 -1.19443,-1.273877 -2.90191,-1.323027 -4.16064,-0.336985 -3.26515,2.581082 -6.24886,5.557388 -8.86664,8.833649 -0.97594,1.221696 -0.47804,3.351669 0.63761,4.467321 3.47623,3.303865 4.63161,8.653878 2.67636,13.342041 -1.95795,4.677389 -6.69998,7.668845 -11.80255,7.448341 -1.59773,-0.06733 -2.98237,1.104542 -3.16786,2.695878 -0.49622,4.111148 -0.51541,8.2832286 -0.0734,12.38596 0.17371,1.6105249 1.57181,2.8073092 3.19748,2.7281969 4.90429,-0.2464265 10.02404,2.967217 11.88503,7.5207203 1.95391,4.7655918 0.67195,10.2745028 -3.18031,13.7140368 -1.21328,1.077948 -1.37218,2.916047 -0.36459,4.183527 1.31393,1.662032 2.72348,3.243942 4.22392,4.744383 1.42402,1.424022 2.92615,2.770614 4.50907,4.036412 1.253,1.003884 3.06147,0.866532 4.15491,-0.302984 3.47724,-3.737805 8.95652,-4.930886 13.62651,-2.973613 4.51108,1.894656 7.67355,6.971984 7.44699,11.8315 -0.068,1.606485 1.10219,2.98001 2.6915,3.183009 4.1539,0.502615 8.36571,0.525171 12.52197,0.0707 1.61086,-0.173374 2.80596,-1.572484 2.72651,-3.190415 -0.25686,-5.161153 2.76826,-9.942904 7.52813,-11.889067 4.4791,-1.834396 9.79747,-0.755102 13.23801,2.685442 l 0.46862,0.4942 c 1.02644,1.207557 2.91302,1.373861 4.18757,0.369303 3.26952,-2.582092 6.24987,-5.555032 8.86731,-8.833648 z M 546.71049,12.247752 c -12.39303,-12.3930297 -12.39303,-32.484866 -3.3e-4,-44.877559 12.39269,-12.392693 32.48486,-12.392356 44.87755,3.36e-4 12.3927,12.392693 12.39303,32.48486659 3.4e-4,44.877559 -4.20642,4.206419 -9.30058,6.981074 -14.67921,8.33137 l 3.4e-4,-19.65116466 c 2.38852,-0.96584363 4.58246,-2.40838104 6.4586,-4.28519464 3.67451,-3.6745149 5.69777,-8.5599537 5.69709,-13.7564547 0,-5.195828 -2.02359,-10.08093 -5.69743,-13.754771 -1.22607,-1.226073 -2.60936,-2.283485 -4.11148,-3.142611 -0.65815,-0.376036 -2.24218,-0.722844 -3.23412,-0.722844 l 0.0158,2.649775 c 0,0 -0.0374,9.738895 -0.037,12.98452 0,0.340015 -0.406,0.74534 -0.57601,0.867543 l -0.12186,0.09157 c -1.94785,1.620624 -4.40505,3.446941 -5.48838,4.009817 -0.0697,-3.37e-4 -0.13197,-0.004 -0.20334,-0.004 -0.0747,0 -0.14509,0.0017 -0.21814,0.0027 -1.10152,-0.566242 -3.59541,-2.421847 -5.57018,-4.072096 l 0.0101,-0.0094 -0.10201,-0.06093 c -0.0162,-0.01279 -0.0451,-0.0377 -0.0808,-0.07339 -0.19593,-0.195929 -0.42923,-0.538974 -0.42957,-1.062462 0,-3.378601 -0.0333,-12.666388 -0.0333,-12.666388 l 0.0123,-3.062382 c -1.13639,0.02301 -2.38499,0.643902 -3.26331,1.146518 -6.03071,3.464783 -9.77761,9.931794 -9.77794,16.878529 3.3e-4,5.196838 2.02426,10.0822768 5.69878,13.7567917 1.87647,1.8764769 4.07007,3.31935101 6.45826,4.28485799 l 0,19.86426231 c -5.71831,-1.255698 -11.15787,-4.097681 -15.60466,-8.544467 z"
       id="path4151"
       sodipodi:nodetypes="csccccccccccccccccccccccccccccsccccccccccccccsssccccscccccccsccccccccccscccc" />
    <g
       id="g4153"
       transform="matrix(0.33664818,0.33664818,-0.33664818,0.33664818,569.14944,-88.035028)" />
    <g
       id="g4155"
       transform="matrix(0.33664818,0.33664818,-0.33664818,0.33664818,569.14944,-88.035028)" />
    <g
       id="g4157"
       transform="matrix(0.33664818,0.33664818,-0.33664818,0.33664818,569.14944,-88.035028)" />
    <g
       id="g4159"
       transform="matrix(0.33664818,0.33664818,-0.33664818,0.33664818,569.14944,-88.035028)" />
    <g
       id="g4161"
       transform="matrix(0.33664818,0.33664818,-0.33664818,0.33664818,569.14944,-88.035028)" />
    <g
       id="g4163"
       transform="matrix(0.33664818,0.33664818,-0.33664818,0.33664818,569.14944,-88.035028)" />
    <g
       id="g4165"
       transform="matrix(0.33664818,0.33664818,-0.33664818,0.33664818,569.14944,-88.035028)" />
    <g
       id="g4167"
       transform="matrix(0.33664818,0.33664818,-0.33664818,0.33664818,569.14944,-88.035028)" />
    <g
       id="g4169"
       transform="matrix(0.33664818,0.33664818,-0.33664818,0.33664818,569.14944,-88.035028)" />
    <g
       id="g4171"
       transform="matrix(0.33664818,0.33664818,-0.33664818,0.33664818,569.14944,-88.035028)" />
    <g
       id="g4173"
       transform="matrix(0.33664818,0.33664818,-0.33664818,0.33664818,569.14944,-88.035028)" />
    <g
       id="g4175"
       transform="matrix(0.33664818,0.33664818,-0.33664818,0.33664818,569.14944,-88.035028)" />
    <g
       id="g4177"
       transform="matrix(0.33664818,0.33664818,-0.33664818,0.33664818,569.14944,-88.035028)" />
    <g
       id="g4179"
       transform="matrix(0.33664818,0.33664818,-0.33664818,0.33664818,569.14944,-88.035028)" />
    <g
       id="g4181"
       transform="matrix(0.33664818,0.33664818,-0.33664818,0.33664818,569.14944,-88.035028)" />
  </g>
</svg>
